<svg width="25" height="20" viewBox="0 0 25 20" fill="none" xmlns="http://www.w3.org/2000/svg">
<path d="M12.5 0.908203C12.85 0.908203 13.1375 1.01953 13.3625 1.24219C13.5875 1.46484 13.7 1.74935 13.7 2.0957V4.4707H18.2C18.975 4.49544 19.6125 4.75521 20.1125 5.25C20.6125 5.74479 20.875 6.37565 20.9 7.14258V17.2363C20.875 18.0033 20.6125 18.6341 20.1125 19.1289C19.6125 19.6237 18.975 19.8835 18.2 19.9082H6.8C6.025 19.8835 5.3875 19.6237 4.8875 19.1289C4.3875 18.6341 4.125 18.0033 4.1 17.2363V7.14258C4.125 6.37565 4.3875 5.74479 4.8875 5.25C5.3875 4.75521 6.025 4.49544 6.8 4.4707H11.3V2.0957C11.3 1.74935 11.4125 1.46484 11.6375 1.24219C11.8625 1.01953 12.15 0.908203 12.5 0.908203ZM8.3 15.1582C7.925 15.1829 7.725 15.3809 7.7 15.752C7.725 16.123 7.925 16.321 8.3 16.3457H9.5C9.875 16.321 10.075 16.123 10.1 15.752C10.075 15.3809 9.875 15.1829 9.5 15.1582H8.3ZM11.9 15.1582C11.525 15.1829 11.325 15.3809 11.3 15.752C11.325 16.123 11.525 16.321 11.9 16.3457H13.1C13.475 16.321 13.675 16.123 13.7 15.752C13.675 15.3809 13.475 15.1829 13.1 15.1582H11.9ZM15.5 15.1582C15.125 15.1829 14.925 15.3809 14.9 15.752C14.925 16.123 15.125 16.321 15.5 16.3457H16.7C17.075 16.321 17.275 16.123 17.3 15.752C17.275 15.3809 17.075 15.1829 16.7 15.1582H15.5ZM10.4 10.4082C10.375 9.83919 10.125 9.40625 9.65 9.10938C9.15 8.86198 8.65 8.86198 8.15 9.10938C7.675 9.40625 7.425 9.83919 7.4 10.4082C7.425 10.9772 7.675 11.4102 8.15 11.707C8.65 11.9544 9.15 11.9544 9.65 11.707C10.125 11.4102 10.375 10.9772 10.4 10.4082ZM16.1 11.8926C16.675 11.8678 17.1125 11.6204 17.4125 11.1504C17.6625 10.6556 17.6625 10.1608 17.4125 9.66602C17.1125 9.19596 16.675 8.94857 16.1 8.92383C15.525 8.94857 15.0875 9.19596 14.7875 9.66602C14.5375 10.1608 14.5375 10.6556 14.7875 11.1504C15.0875 11.6204 15.525 11.8678 16.1 11.8926ZM2.3 9.2207H2.9V16.3457H2.3C1.8 16.321 1.375 16.1478 1.025 15.8262C0.7 15.4798 0.525 15.0592 0.5 14.5645V11.002C0.525 10.5072 0.7 10.0866 1.025 9.74023C1.375 9.41862 1.8 9.24544 2.3 9.2207ZM22.7 9.2207C23.2 9.24544 23.625 9.41862 23.975 9.74023C24.3 10.0866 24.475 10.5072 24.5 11.002V14.5645C24.475 15.0592 24.3 15.4798 23.975 15.8262C23.625 16.1478 23.2 16.321 22.7 16.3457H22.1V9.2207H22.7Z" fill="#0D3FC6"/>
</svg>
