<svg width="20" height="16" viewBox="0 0 20 16" fill="none" xmlns="http://www.w3.org/2000/svg">
<g clip-path="url(#clip0_1_4464)">
<path d="M6.58385 11.3438C8.4058 11.3021 9.92754 10.7604 11.1491 9.71875C12.3706 8.69792 13.0021 7.40625 13.0435 5.84375C13.0021 4.28125 12.3706 2.98958 11.1491 1.96875C9.92754 0.927083 8.4058 0.385417 6.58385 0.34375C4.7619 0.385417 3.24016 0.927083 2.01863 1.96875C0.7971 2.98958 0.16563 4.28125 0.124222 5.84375C0.144926 7.07292 0.559004 8.14583 1.36646 9.0625C1.24223 9.375 1.08695 9.63542 0.900619 9.84375C0.755692 10.0312 0.621116 10.1771 0.496893 10.2812C0.434781 10.3438 0.393373 10.3854 0.372669 10.4062C0.351965 10.4271 0.341613 10.4375 0.341613 10.4375H0.310557C0.144926 10.5833 0.0931659 10.7708 0.155278 11C0.238093 11.2083 0.393373 11.3229 0.621116 11.3438C1.32505 11.3229 1.96687 11.1979 2.54658 10.9688C2.83644 10.8438 3.09524 10.7188 3.32298 10.5938C4.29606 11.0729 5.38302 11.3229 6.58385 11.3438ZM14.0373 5.84375C13.9752 7.63542 13.3126 9.11458 12.0497 10.2812C10.766 11.4479 9.19254 12.125 7.32919 12.3125C7.72257 13.5 8.47826 14.4583 9.59627 15.1875C10.7143 15.9375 12.029 16.3229 13.5404 16.3438C14.7412 16.3229 15.8282 16.0729 16.8012 15.5938C17.029 15.7188 17.2878 15.8438 17.5776 15.9688C18.1573 16.1979 18.7992 16.3229 19.5031 16.3438C19.7308 16.3229 19.8861 16.2083 19.9689 16C20.0311 15.7708 19.9689 15.5833 19.7826 15.4375C19.7826 15.4375 19.7826 15.4271 19.7826 15.4062C19.7619 15.4062 19.7516 15.4062 19.7516 15.4062C19.7308 15.3854 19.6894 15.3438 19.6273 15.2812C19.5031 15.1771 19.3685 15.0312 19.2236 14.8438C19.0373 14.6146 18.882 14.3542 18.7578 14.0625C19.5652 13.1458 19.9793 12.0729 20 10.8438C19.9586 9.36458 19.3789 8.11458 18.2609 7.09375C17.1429 6.07292 15.7246 5.48958 14.0062 5.34375C14.0269 5.51042 14.0373 5.67708 14.0373 5.84375Z" fill="#2563EB"/>
</g>
<defs>
<clipPath id="clip0_1_4464">
<rect width="20" height="16" fill="white"/>
</clipPath>
</defs>
</svg>
