<svg width="10" height="12" viewBox="0 0 10 12" fill="none" xmlns="http://www.w3.org/2000/svg">
<path d="M1.41059 12C1.10347 12 0.847252 11.8973 0.641919 11.692C0.436585 11.4867 0.333696 11.2304 0.333252 10.9233V1.07667C0.333252 0.77 0.436141 0.514 0.641919 0.308667C0.847696 0.103333 1.10392 0.000444444 1.41059 0H8.58992C8.89659 0 9.15281 0.102889 9.35859 0.308667C9.56436 0.514445 9.66703 0.770667 9.66659 1.07733V10.9233C9.66659 11.23 9.56392 11.4862 9.35859 11.692C9.15325 11.8978 8.89681 12.0004 8.58925 12H1.41059ZM1.41059 11.3333H8.58992C8.69214 11.3333 8.78614 11.2907 8.87192 11.2053C8.9577 11.12 9.00036 11.0258 8.99992 10.9227V1.07733C8.99992 0.974667 8.95725 0.880444 8.87192 0.794667C8.78659 0.708889 8.69236 0.666222 8.58925 0.666667H7.66659V4.276C7.66659 4.38356 7.6217 4.46356 7.53192 4.516C7.44214 4.56844 7.35036 4.56578 7.25659 4.508L6.60592 4.12267C6.51214 4.06489 6.4197 4.036 6.32859 4.036C6.23747 4.036 6.14503 4.06489 6.05125 4.12267L5.40125 4.508C5.30703 4.56578 5.21659 4.56844 5.12992 4.516C5.04325 4.46356 4.99992 4.38356 4.99992 4.276V0.666667H1.41059C1.30792 0.666667 1.2137 0.709333 1.12792 0.794667C1.04214 0.88 0.999474 0.974 0.999919 1.07667V10.9233C0.999919 11.0256 1.04259 11.1196 1.12792 11.2053C1.21325 11.2911 1.30725 11.3338 1.40992 11.3333M4.99992 4.28867V4.276C4.99992 4.38356 5.04325 4.46356 5.12992 4.516C5.21659 4.56844 5.30703 4.56578 5.40125 4.508L6.05125 4.12267C6.14503 4.06489 6.23747 4.036 6.32859 4.036C6.4197 4.036 6.51214 4.06489 6.60592 4.12267L7.25592 4.508C7.35014 4.56578 7.44214 4.56844 7.53192 4.516C7.6217 4.46356 7.66659 4.38356 7.66659 4.276V4.28867C7.66659 4.38778 7.6217 4.46356 7.53192 4.516C7.44214 4.56844 7.35014 4.57 7.25592 4.52067L6.60592 4.12267C6.51214 4.06489 6.4197 4.036 6.32859 4.036C6.23747 4.036 6.14503 4.06489 6.05125 4.12267L5.40125 4.52067C5.30703 4.57 5.21659 4.56844 5.12992 4.516C5.04325 4.46356 4.99992 4.38778 4.99992 4.28867Z" fill="black"/>
</svg>
