<svg width="15" height="16" viewBox="0 0 15 16" fill="none" xmlns="http://www.w3.org/2000/svg">
<path d="M12.4583 2.33317H11.0417V1.62484C11.0417 1.43698 10.967 1.25681 10.8342 1.12397C10.7014 0.991132 10.5212 0.916504 10.3333 0.916504C10.1455 0.916504 9.9653 0.991132 9.83247 1.12397C9.69963 1.25681 9.625 1.43698 9.625 1.62484V2.33317H5.375V1.62484C5.375 1.43698 5.30037 1.25681 5.16753 1.12397C5.0347 0.991132 4.85453 0.916504 4.66667 0.916504C4.47881 0.916504 4.29864 0.991132 4.1658 1.12397C4.03296 1.25681 3.95833 1.43698 3.95833 1.62484V2.33317H2.54167C1.97808 2.33317 1.43758 2.55705 1.03907 2.95557C0.640551 3.35408 0.416668 3.89459 0.416668 4.45817V12.9582C0.416668 13.5218 0.640551 14.0623 1.03907 14.4608C1.43758 14.8593 1.97808 15.0832 2.54167 15.0832H12.4583C13.0219 15.0832 13.5624 14.8593 13.9609 14.4608C14.3595 14.0623 14.5833 13.5218 14.5833 12.9582V4.45817C14.5833 3.89459 14.3595 3.35408 13.9609 2.95557C13.5624 2.55705 13.0219 2.33317 12.4583 2.33317ZM13.1667 12.9582C13.1667 13.146 13.092 13.3262 12.9592 13.459C12.8264 13.5919 12.6462 13.6665 12.4583 13.6665H2.54167C2.35381 13.6665 2.17364 13.5919 2.0408 13.459C1.90796 13.3262 1.83333 13.146 1.83333 12.9582V7.99984H13.1667V12.9582ZM13.1667 6.58317H1.83333V4.45817C1.83333 4.27031 1.90796 4.09014 2.0408 3.9573C2.17364 3.82446 2.35381 3.74984 2.54167 3.74984H3.95833V4.45817C3.95833 4.64603 4.03296 4.8262 4.1658 4.95904C4.29864 5.09188 4.47881 5.1665 4.66667 5.1665C4.85453 5.1665 5.0347 5.09188 5.16753 4.95904C5.30037 4.8262 5.375 4.64603 5.375 4.45817V3.74984H9.625V4.45817C9.625 4.64603 9.69963 4.8262 9.83247 4.95904C9.9653 5.09188 10.1455 5.1665 10.3333 5.1665C10.5212 5.1665 10.7014 5.09188 10.8342 4.95904C10.967 4.8262 11.0417 4.64603 11.0417 4.45817V3.74984H12.4583C12.6462 3.74984 12.8264 3.82446 12.9592 3.9573C13.092 4.09014 13.1667 4.27031 13.1667 4.45817V6.58317Z" fill="#636C76"/>
</svg>
