<svg width="58" height="59" viewBox="0 0 58 59" fill="none" xmlns="http://www.w3.org/2000/svg">
<path d="M32.3372 53.8341C33.9772 53.621 35.273 55.1936 34.7172 56.7224C34.4267 57.4975 33.7519 58.0415 32.9148 58.1503C30.9882 58.3934 29.042 58.4513 27.1039 58.3231C19.9538 57.8508 13.5208 54.8122 8.75526 50.1381C3.55854 45.0412 0.34375 37.9992 0.34375 30.2226C0.34375 22.4448 3.55854 15.4039 8.75526 10.307C13.952 5.21005 21.1307 2.05699 29.0607 2.05699C31.81 2.05699 34.4896 2.44509 37.0433 3.16858C39.1385 3.76149 41.1572 4.58836 43.0601 5.63293L42.494 4.17922C42.0216 2.96107 42.6449 1.59822 43.8858 1.13384C45.1278 0.670581 46.5173 1.2819 46.9908 2.50005L49.3833 8.64017C49.4735 8.87378 49.526 9.11978 49.5388 9.36927C49.7264 10.5134 49.0276 11.6474 47.8657 11.9929L41.4578 13.9155C40.1895 14.2924 38.8503 13.5902 38.466 12.3473C38.0818 11.1045 38.7977 9.7899 40.0649 9.41301L40.5921 9.25486C39.0733 8.44859 37.4707 7.80478 35.8116 7.33453C33.6879 6.7333 31.4235 6.41026 29.0607 6.41026C22.3566 6.41026 16.2862 9.07539 11.8934 13.3849C7.49954 17.6933 4.78224 23.6461 4.78224 30.2226C4.78224 36.7979 7.49954 42.7507 11.8934 47.0602C15.8745 50.9648 21.2324 53.52 27.192 53.9642C28.896 54.091 30.6492 54.0494 32.3372 53.8341ZM24.6645 18.7668C24.6645 17.5654 25.6583 16.5907 26.8843 16.5907C28.1092 16.5907 29.103 17.5654 29.103 18.7668V32.0161L38.3494 36.0026C39.4702 36.4861 39.9779 37.7693 39.485 38.8685C38.9921 39.9667 37.6838 40.4658 36.563 39.9824L26.1032 35.4732C25.2626 35.1625 24.6645 34.3672 24.6645 33.4351V18.7668ZM40.0694 51.5077C38.2831 52.4039 38.5209 54.9737 40.4457 55.5379C41.0026 55.6927 41.5573 55.6456 42.0765 55.391C43.5084 54.6854 44.883 53.8543 46.1719 52.921C46.8009 52.4611 47.128 51.7365 47.0605 50.9704C46.889 49.2778 44.9242 48.4197 43.5278 49.4247C42.4376 50.2143 41.2806 50.9112 40.0694 51.5077ZM49.1225 43.7064C48.1115 45.1847 49.2472 47.1724 51.0633 47.0939C51.7735 47.0568 52.4094 46.7159 52.8074 46.1326C53.7063 44.8247 54.4828 43.4551 55.1484 42.0193C55.79 40.6015 54.7904 39.0132 53.2088 38.947C52.3019 38.9179 51.4807 39.4148 51.1033 40.2258C50.5395 41.4428 49.8842 42.5981 49.1225 43.7064ZM53.2008 32.5433C53.1207 33.3981 53.5439 34.1989 54.2975 34.633C55.7111 35.4205 57.454 34.5388 57.6198 32.9539C57.7719 31.3813 57.7959 29.8244 57.6861 28.2484C57.6312 27.4913 57.1852 26.8238 56.499 26.4705C54.9597 25.6876 53.1356 26.8586 53.2579 28.5535C53.3517 29.8905 53.33 31.2085 53.2008 32.5433ZM51.3618 20.8352C51.8593 21.9602 53.1939 22.4661 54.3295 21.9524C55.424 21.4588 55.9146 20.2014 55.44 19.1156C54.811 17.6698 54.0539 16.28 53.1882 14.9564C52.1006 13.3165 49.5411 13.7943 49.1454 15.7135C49.0368 16.2777 49.1397 16.8285 49.4565 17.3142C50.1907 18.4381 50.8288 19.6069 51.3618 20.8352Z" fill="#F0AD4E"/>
</svg>
