<svg width="121" height="121" viewBox="0 0 121 121" fill="none" xmlns="http://www.w3.org/2000/svg">
<path d="M16.0811 29.8627C9.23365 39.7839 5.90845 51.7136 6.63657 63.7464C7.3647 75.7791 12.1041 87.2208 20.0979 96.244C28.0917 105.267 38.8787 111.351 50.7359 113.524C62.5932 115.698 74.8367 113.835 85.511 108.233C96.1852 102.631 104.674 93.6143 109.623 82.6219C114.571 71.6295 115.693 59.2959 112.809 47.5912C109.925 35.8864 103.202 25.4857 93.7136 18.0502C84.2252 10.6146 72.5187 6.57326 60.4639 6.57153C57.1584 6.57172 53.8596 6.87016 50.6077 7.46323" stroke="#0D3FC6" stroke-width="1.18893" stroke-linecap="round" stroke-linejoin="round"/>
<path d="M25.2716 19.6736C23.46 21.2414 21.7523 22.9253 20.1592 24.7146" stroke="#0D3FC6" stroke-width="1.18893" stroke-linecap="round" stroke-linejoin="round"/>
<path d="M102.592 78.4274C112.493 55.1809 101.674 28.3096 78.4277 18.4085C55.1813 8.50749 28.3099 19.3261 18.4089 42.5725C8.50783 65.8189 19.3264 92.6902 42.5728 102.591C65.8192 112.492 92.6905 101.674 102.592 78.4274Z" fill="#0D3FC6"/>
<path d="M39.3721 55.7457L56.7305 75.4701L85.1222 35.2485" stroke="white" stroke-width="7.1336" stroke-linecap="round" stroke-linejoin="round"/>
</svg>
