<svg width="16" height="16" viewBox="0 0 16 16" fill="none" xmlns="http://www.w3.org/2000/svg">
<path d="M10.9583 3.90278C11.393 3.90278 11.8099 4.07545 12.1172 4.3828C12.4246 4.69015 12.5972 5.10701 12.5972 5.54167M10.9583 0.625C12.2623 0.625 13.5129 1.143 14.4349 2.06506C15.357 2.98711 15.875 4.23769 15.875 5.54167M2.76389 1.44444H6.04167L7.68056 5.54167L5.63194 6.77083C6.50954 8.55028 7.94972 9.99046 9.72917 10.8681L10.9583 8.81944L15.0556 10.4583V13.7361C15.0556 14.1708 14.8829 14.5876 14.5755 14.895C14.2682 15.2023 13.8513 15.375 13.4167 15.375C10.2202 15.1808 7.2054 13.8234 4.94101 11.559C2.67662 9.2946 1.31925 6.27977 1.125 3.08333C1.125 2.64867 1.29767 2.23182 1.60502 1.92446C1.91237 1.61711 2.32923 1.44444 2.76389 1.44444Z" stroke="#636C76" stroke-linecap="round" stroke-linejoin="round"/>
</svg>
