<svg width="16" height="16" viewBox="0 0 16 16" fill="none" xmlns="http://www.w3.org/2000/svg">
<path d="M2.2031 15.1373H13.797C15.0779 15.1373 15.8764 14.218 15.8764 13.0579C15.8764 12.7114 15.786 12.3572 15.5977 12.0335L9.78946 1.91594C9.39731 1.23033 8.71203 0.861328 8.00392 0.861328C7.30321 0.861328 6.61021 1.23033 6.21067 1.91594L0.402458 12.0409C0.220664 12.3491 0.124457 12.7002 0.123779 13.0579C0.123779 14.2183 0.929922 15.1373 2.2031 15.1373ZM2.21821 13.9544C1.69074 13.9544 1.34392 13.525 1.34392 13.0579C1.34392 12.9223 1.36674 12.7641 1.44228 12.606L7.24278 2.4884C7.40864 2.20233 7.71014 2.06669 8.00392 2.06669C8.29771 2.06669 8.58378 2.19461 8.74964 2.4884L14.5505 12.6134C14.6257 12.7645 14.6633 12.9223 14.6633 13.0579C14.6633 13.525 14.3017 13.9547 13.7819 13.9547L2.21821 13.9544ZM8.00392 10.0596C8.36553 10.0596 8.57606 9.84879 8.58378 9.45697L8.68921 5.48701C8.69692 5.10258 8.39542 4.81651 7.99621 4.81651C7.5896 4.81651 7.30321 5.09518 7.3106 5.47929L7.40864 9.45697C7.41603 9.8414 7.62721 10.0596 8.00392 10.0596ZM8.00392 12.508C8.44074 12.508 8.81714 12.1615 8.81714 11.7246C8.81714 11.2801 8.44814 10.941 8.00392 10.941C7.55939 10.941 7.19006 11.2875 7.19006 11.7246C7.19006 12.1541 7.56678 12.508 8.00392 12.508Z" fill="#FAB400"/>
</svg>
