<svg width="14" height="16" viewBox="0 0 14 16" fill="none" xmlns="http://www.w3.org/2000/svg">
<path d="M2.616 16C2.168 16 1.78667 15.8426 1.472 15.528C1.15733 15.2133 1 14.8323 1 14.385V1.99998H0V0.99998H4V0.22998H10V0.99998H14V1.99998H13V14.385C13 14.845 12.846 15.2293 12.538 15.538C12.23 15.8466 11.8453 16.0006 11.384 16H2.616ZM12 1.99998H2V14.385C2 14.5643 2.05767 14.7116 2.173 14.827C2.28833 14.9423 2.436 15 2.616 15H11.385C11.5383 15 11.6793 14.936 11.808 14.808C11.9367 14.68 12.0007 14.5386 12 14.384V1.99998ZM4.808 13H5.808V3.99998H4.808V13ZM8.192 13H9.192V3.99998H8.192V13Z" fill="red"/>
</svg>
