<svg width="21" height="20" viewBox="0 0 21 20" fill="none" xmlns="http://www.w3.org/2000/svg">
<path d="M14.714 2.98201L16.116 1.58101C16.4877 1.20931 16.9918 1.00049 17.5175 1.00049C18.0432 1.00049 18.5473 1.20931 18.919 1.58101C19.2907 1.95271 19.4995 2.45684 19.4995 2.98251C19.4995 3.50817 19.2907 4.01231 18.919 4.38401L17.518 5.78601M14.714 2.98201L9.48 8.21601C8.435 9.26201 7.912 9.78401 7.556 10.421C7.2 11.058 6.842 12.561 6.5 14C7.938 13.658 9.442 13.3 10.079 12.944C10.716 12.588 11.239 12.065 12.284 11.02L17.518 5.78601M14.714 2.98201L17.518 5.78601" stroke="#0D3FC6" stroke-width="1.5" stroke-linecap="round" stroke-linejoin="round"/>
<path d="M19.5 10C19.5 14.243 19.5 16.364 18.182 17.682C16.864 19 14.742 19 10.5 19C6.258 19 4.136 19 2.818 17.682C1.5 16.364 1.5 14.242 1.5 10C1.5 5.758 1.5 3.636 2.818 2.318C4.136 1 6.258 1 10.5 1" stroke="#0D3FC6" stroke-width="1.5" stroke-linecap="round" stroke-linejoin="round"/>
</svg>
