<svg width="18" height="10" viewBox="0 0 18 10" fill="none" xmlns="http://www.w3.org/2000/svg">
<path d="M2.29014 6.09833C2.21554 6.30201 2.06445 6.46858 1.86899 6.56263C1.67353 6.65669 1.4491 6.67082 1.24338 6.60203C1.03766 6.53324 0.866871 6.38695 0.767301 6.19424C0.66773 6.00153 0.647226 5.77759 0.710143 5.57C0.740667 5.47855 0.775144 5.3868 0.813477 5.29833C0.880143 5.14 0.978477 4.92167 1.11348 4.66333C1.38848 4.14667 1.81681 3.45833 2.44848 2.77C3.72348 1.37833 5.81181 0 9.00014 0C12.1885 0 14.2768 1.37833 15.5518 2.77C16.2318 3.51702 16.7837 4.37131 17.1851 5.29833L17.2618 5.48667C17.2668 5.5 17.2835 5.58667 17.3001 5.67L17.3335 5.83333C17.3335 5.83333 17.4735 6.38833 16.7635 6.62333C16.5544 6.69316 16.3261 6.67729 16.1287 6.57921C15.9313 6.48112 15.7808 6.30881 15.7101 6.1V6.095L15.7001 6.06833L15.6485 5.93833C15.3211 5.18959 14.8735 4.49938 14.3235 3.895C13.3068 2.79 11.6451 1.66667 9.00014 1.66667C6.35514 1.66667 4.69348 2.78833 3.67681 3.89667C3.12692 4.50054 2.67937 5.19017 2.35181 5.93833L2.30181 6.06833L2.29014 6.09833ZM5.66681 6.66667C5.66681 5.78261 6.018 4.93477 6.64312 4.30964C7.26824 3.68452 8.11609 3.33333 9.00014 3.33333C9.8842 3.33333 10.732 3.68452 11.3572 4.30964C11.9823 4.93477 12.3335 5.78261 12.3335 6.66667C12.3335 7.55072 11.9823 8.39857 11.3572 9.02369C10.732 9.64881 9.8842 10 9.00014 10C8.11609 10 7.26824 9.64881 6.64312 9.02369C6.018 8.39857 5.66681 7.55072 5.66681 6.66667Z" fill="#989EAE"/>
</svg>
