<svg width="29" height="29" viewBox="0 0 29 29" fill="none" xmlns="http://www.w3.org/2000/svg">
<path d="M29 14.5C29 6.49123 22.5088 0 14.5 0C6.49123 0 0 6.49123 0 14.5C0 21.7381 5.29945 27.7367 12.2356 28.8252V18.6951H8.55699V14.5H12.2356V11.306C12.2356 7.67507 14.3967 5.66493 17.7099 5.66493C19.2989 5.66493 20.9594 5.95096 20.9594 5.95096V9.51836H19.1321C17.3285 9.51836 16.7723 10.6386 16.7723 11.7827V14.5H20.7926L20.149 18.6951H16.7723V28.8252C23.7005 27.7367 29 21.7381 29 14.5Z" fill="#1877F2"/>
<path d="M20.1406 18.6951L20.7842 14.5H16.7639V11.7827C16.7639 10.6386 17.328 9.51834 19.1237 9.51834H20.9511V5.95094C20.9511 5.95094 19.2905 5.66492 17.7015 5.66492C14.3883 5.66492 12.2272 7.67505 12.2272 11.306V14.5H8.54858V18.6951H12.2272V28.8252C12.9661 28.9444 13.7209 29 14.4916 29C15.2623 29 16.0171 28.9364 16.756 28.8252V18.6951H20.1406Z" fill="white"/>
</svg>
