<svg width="13" height="13" viewBox="0 0 13 13" fill="none" xmlns="http://www.w3.org/2000/svg">
<path d="M11.6018 1H1.72713C1.58746 0.999884 1.45072 1.03901 1.33328 1.11269C1.21584 1.18637 1.12268 1.29149 1.06496 1.41545C1.00723 1.53941 0.987388 1.67697 1.0078 1.81164C1.02822 1.94631 1.08803 2.07239 1.18007 2.17478L5.032 6.4646C5.14785 6.59382 5.21162 6.75965 5.21145 6.93125V10.3827C5.21145 10.4376 5.22458 10.4918 5.2498 10.541C5.27502 10.5902 5.31163 10.6329 5.35675 10.6659L7.53626 12.2592C7.59023 12.2986 7.65441 12.3227 7.72159 12.3286C7.78878 12.3345 7.85633 12.322 7.91667 12.2926C7.97701 12.2632 8.02775 12.218 8.06322 12.1621C8.09868 12.1061 8.11747 12.0417 8.11747 11.9759V6.93125C8.1173 6.75965 8.18106 6.59382 8.29691 6.4646L12.1488 2.17407C12.56 1.71662 12.2259 1 11.6018 1Z" stroke="#636A7E" stroke-linecap="round"/>
</svg>
