<svg width="43" height="31" viewBox="0 0 43 31" fill="none" xmlns="http://www.w3.org/2000/svg">
<path fill-rule="evenodd" clip-rule="evenodd" d="M41.5393 1.42901C42.1341 2.02398 42.4682 2.83082 42.4682 3.67211C42.4682 4.5134 42.1341 5.32025 41.5393 5.91522L17.7588 29.6957C17.4445 30.0101 17.0714 30.2594 16.6608 30.4295C16.2501 30.5997 15.81 30.6872 15.3655 30.6872C14.921 30.6872 14.4809 30.5997 14.0703 30.4295C13.6596 30.2594 13.2865 30.0101 12.9722 29.6957L1.15707 17.8827C0.854041 17.59 0.612337 17.2399 0.446059 16.8528C0.27978 16.4658 0.192257 16.0494 0.188596 15.6282C0.184936 15.2069 0.265211 14.7891 0.424738 14.3992C0.584264 14.0093 0.819848 13.655 1.11774 13.3571C1.41564 13.0592 1.76988 12.8237 2.15979 12.6641C2.5497 12.5046 2.96749 12.4243 3.38876 12.428C3.81003 12.4317 4.22635 12.5192 4.61343 12.6855C5.00052 12.8517 5.35061 13.0934 5.64328 13.3965L15.3645 23.1177L37.051 1.42901C37.3456 1.13418 37.6955 0.900297 38.0805 0.740726C38.4656 0.581155 38.8783 0.499023 39.2952 0.499023C39.712 0.499023 40.1247 0.581155 40.5098 0.740726C40.8948 0.900297 41.2447 1.13418 41.5393 1.42901Z" fill="#22C55E"/>
</svg>
