<svg width="18" height="16" viewBox="0 0 18 16" fill="none" xmlns="http://www.w3.org/2000/svg">
<path d="M8.99984 2.58381L8.54984 3.01714C8.60814 3.07763 8.67804 3.12575 8.75535 3.15861C8.83267 3.19147 8.91582 3.20841 8.99984 3.20841C9.08385 3.20841 9.167 3.19147 9.24432 3.15861C9.32163 3.12575 9.39153 3.07763 9.44984 3.01714L8.99984 2.58381ZM6.85484 13.2688C5.5915 12.273 4.21067 11.3005 3.11484 10.0671C2.0415 8.85714 1.2915 7.44631 1.2915 5.61464H0.0415039C0.0415039 7.83631 0.966504 9.53131 2.18067 10.8971C3.37234 12.2388 4.89234 13.3138 6.08067 14.2505L6.85484 13.2688ZM1.2915 5.61464C1.2915 3.82298 2.304 2.31964 3.6865 1.68714C5.02984 1.07298 6.83484 1.23548 8.54984 3.01714L9.44984 2.15131C7.4165 0.0371434 5.05317 -0.312023 3.1665 0.550477C1.3215 1.39464 0.0415039 3.35464 0.0415039 5.61464H1.2915ZM6.08067 14.2505C6.50817 14.5871 6.9665 14.9455 7.43067 15.2171C7.89484 15.4888 8.42484 15.7088 8.99984 15.7088V14.4588C8.7415 14.4588 8.43817 14.3588 8.0615 14.138C7.684 13.918 7.29317 13.6146 6.85484 13.2688L6.08067 14.2505ZM11.919 14.2505C13.1073 13.313 14.6273 12.2396 15.819 10.8971C17.0332 9.53048 17.9582 7.83631 17.9582 5.61464H16.7082C16.7082 7.44631 15.9582 8.85714 14.8848 10.0671C13.789 11.3005 12.4082 12.273 11.1448 13.2688L11.919 14.2505ZM17.9582 5.61464C17.9582 3.35464 16.679 1.39464 14.8332 0.550477C12.9465 -0.312023 10.5848 0.0371434 8.54984 2.15048L9.44984 3.01714C11.1648 1.23631 12.9698 1.07298 14.3132 1.68714C15.6957 2.31964 16.7082 3.82214 16.7082 5.61464H17.9582ZM11.1448 13.2688C10.7065 13.6146 10.3157 13.918 9.93817 14.138C9.56067 14.358 9.25817 14.4588 8.99984 14.4588V15.7088C9.57484 15.7088 10.1048 15.488 10.569 15.2171C11.034 14.9455 11.4915 14.5871 11.919 14.2505L11.1448 13.2688Z" fill="#05073C"/>
</svg>
