<svg width="14" height="15" viewBox="0 0 14 15" fill="none" xmlns="http://www.w3.org/2000/svg">
<path d="M6.92254 14.5773C5.22336 14.5773 3.73237 14.0559 2.44958 13.0132C1.16679 11.9704 0.357012 10.634 0.0202423 9.00379C-0.0163245 8.87344 -0.00334906 8.75283 0.0591685 8.64195C0.121686 8.53107 0.219886 8.46678 0.353768 8.44909C0.479393 8.4314 0.589978 8.45882 0.685524 8.53137C0.78048 8.60391 0.84801 8.70712 0.888116 8.841C1.20778 10.2471 1.92909 11.4072 3.05205 12.3213C4.17501 13.2355 5.46517 13.6926 6.92254 13.6926C8.64767 13.6926 10.1109 13.0919 11.3123 11.8905C12.5137 10.6891 13.1147 9.22555 13.1153 7.49983C13.1159 5.7741 12.5149 4.31054 11.3123 3.10914C10.1098 1.90775 8.64649 1.30705 6.92254 1.30705C6.0066 1.30705 5.14609 1.5005 4.34103 1.8874C3.53597 2.27371 2.82528 2.80599 2.20895 3.48425H3.9615C4.08713 3.48425 4.19241 3.52672 4.27734 3.61164C4.36227 3.69657 4.40444 3.80185 4.40385 3.92748C4.40326 4.0531 4.36109 4.15808 4.27734 4.24242C4.19359 4.32676 4.08831 4.36893 3.9615 4.36893H1.44458C1.24228 4.36893 1.07272 4.30052 0.935889 4.16369C0.799058 4.02686 0.730643 3.85729 0.730643 3.65499V1.13719C0.730643 1.01156 0.773107 0.90658 0.858037 0.82224C0.942966 0.7379 1.04795 0.695435 1.17298 0.694846C1.29802 0.694256 1.403 0.736721 1.48793 0.82224C1.57286 0.907759 1.61533 1.01274 1.61533 1.13719V2.80747C2.29948 2.05667 3.101 1.4716 4.01989 1.05226C4.93878 0.632918 5.90633 0.422953 6.92254 0.422363C7.90453 0.422363 8.82431 0.606967 9.68186 0.976175C10.5394 1.34538 11.2887 1.85083 11.9298 2.49252C12.5709 3.13421 13.0764 3.88324 13.4462 4.73961C13.816 5.59599 14.0006 6.51576 14 7.49894C13.9994 8.48212 13.8148 9.40219 13.4462 10.2592C13.0776 11.1161 12.5721 11.8657 11.9298 12.508C11.2876 13.1503 10.5382 13.6554 9.68186 14.0235C8.82549 14.3915 7.9063 14.5761 6.92254 14.5773ZM7.41531 7.31581L10.0694 9.96986C10.1519 10.0524 10.1962 10.1539 10.2021 10.2742C10.208 10.3951 10.1637 10.5024 10.0694 10.5962C9.97499 10.6906 9.87089 10.7378 9.75706 10.7378C9.64205 10.7378 9.53766 10.6906 9.44388 10.5962L6.7456 7.89793C6.66834 7.82126 6.61319 7.74046 6.58016 7.65553C6.54714 7.5706 6.53062 7.48302 6.53062 7.39278V3.51875C6.53062 3.39313 6.57309 3.28815 6.65802 3.20381C6.74295 3.11888 6.84822 3.07641 6.97385 3.07641C7.09947 3.07641 7.20446 3.11888 7.2888 3.20381C7.37314 3.28874 7.41531 3.39372 7.41531 3.51875V7.31581Z" fill="#636C76"/>
</svg>
