<svg width="11" height="14" viewBox="0 0 11 14" fill="none" xmlns="http://www.w3.org/2000/svg">
<path d="M5.90625 13.9453C6.39844 13.3438 7 12.5326 7.71094 11.5117C8.42188 10.5091 9.0599 9.47005 9.625 8.39453C10.1719 7.31901 10.4635 6.37109 10.5 5.55078C10.4635 4.05599 9.95312 2.81641 8.96875 1.83203C7.98438 0.847656 6.74479 0.337239 5.25 0.300781C3.75521 0.337239 2.51562 0.847656 1.53125 1.83203C0.546875 2.81641 0.0364583 4.05599 0 5.55078C0.0364583 6.37109 0.328125 7.31901 0.875 8.39453C1.4401 9.47005 2.07812 10.5091 2.78906 11.5117C3.5 12.5326 4.10156 13.3438 4.59375 13.9453C4.77604 14.1641 4.99479 14.2734 5.25 14.2734C5.50521 14.2734 5.72396 14.1641 5.90625 13.9453ZM5.25 3.80078C5.90625 3.81901 6.40755 4.11068 6.75391 4.67578C7.08203 5.25911 7.08203 5.84245 6.75391 6.42578C6.40755 6.99089 5.90625 7.28255 5.25 7.30078C4.59375 7.28255 4.09245 6.99089 3.74609 6.42578C3.41797 5.84245 3.41797 5.25911 3.74609 4.67578C4.09245 4.11068 4.59375 3.81901 5.25 3.80078Z" fill="#4B5563"/>
</svg>
