<svg width="32" height="24" viewBox="0 0 32 24" fill="none" xmlns="http://www.w3.org/2000/svg">
<path d="M8.35718 10V8C8.35718 4.69 9.64014 2 16.055 2C22.4698 2 23.7528 4.69 23.7528 8V10" stroke="black" stroke-opacity="0.5" stroke-width="1.5" stroke-linecap="round" stroke-linejoin="round"/>
<path d="M16.0551 18.5C17.8265 18.5 19.2625 17.3807 19.2625 16C19.2625 14.6193 17.8265 13.5 16.0551 13.5C14.2837 13.5 12.8477 14.6193 12.8477 16C12.8477 17.3807 14.2837 18.5 16.0551 18.5Z" stroke="black" stroke-opacity="0.5" stroke-width="1.5" stroke-linecap="round" stroke-linejoin="round"/>
<path d="M22.4698 22H9.64018C4.50831 22 3.22534 21 3.22534 17V15C3.22534 11 4.50831 10 9.64018 10H22.4698C27.6017 10 28.8847 11 28.8847 15V17C28.8847 21 27.6017 22 22.4698 22Z" stroke="black" stroke-opacity="0.5" stroke-width="1.5" stroke-linecap="round" stroke-linejoin="round"/>
</svg>
