<svg width="16" height="16" viewBox="0 0 16 16" fill="none" xmlns="http://www.w3.org/2000/svg">
<path d="M11.5317 2.98294L13.2751 4.72637M12.6525 1.44704L7.9361 6.16344C7.69168 6.40625 7.52535 6.71654 7.45845 7.05451L7.0228 9.23524L9.20352 8.79876C9.54118 8.73123 9.85083 8.5657 10.0946 8.32193L14.811 3.60553C14.9527 3.4638 15.0651 3.29555 15.1419 3.11037C15.2186 2.92519 15.258 2.72672 15.258 2.52628C15.258 2.32585 15.2186 2.12738 15.1419 1.9422C15.0651 1.75702 14.9527 1.58877 14.811 1.44704C14.6693 1.30531 14.501 1.19288 14.3158 1.11618C14.1307 1.03948 13.9322 1 13.7317 1C13.5313 1 13.3328 1.03948 13.1477 1.11618C12.9625 1.19288 12.7942 1.30531 12.6525 1.44704Z" stroke="#636A7E" stroke-linecap="round" stroke-linejoin="round"/>
<path d="M13.6109 10.8828V13.3535C13.6109 13.7903 13.4373 14.2092 13.1285 14.5181C12.8196 14.827 12.4006 15.0005 11.9638 15.0005H2.90489C2.46806 15.0005 2.04912 14.827 1.74023 14.5181C1.43134 14.2092 1.25781 13.7903 1.25781 13.3535V4.29454C1.25781 3.8577 1.43134 3.43876 1.74023 3.12988C2.04912 2.82099 2.46806 2.64746 2.90489 2.64746H5.3755" stroke="#636A7E" stroke-linecap="round" stroke-linejoin="round"/>
</svg>
