<svg width="16" height="16" viewBox="0 0 16 16" fill="none" xmlns="http://www.w3.org/2000/svg">
<path d="M14.335 15.9446C14.651 15.9446 14.9541 15.819 15.1776 15.5956C15.4011 15.3721 15.5266 15.069 15.5266 14.7529V11.9724C15.5266 11.6563 15.4011 11.3532 15.1776 11.1297C14.9541 10.9062 14.651 10.7807 14.335 10.7807C13.4055 10.7807 12.4918 10.6377 11.6179 10.3437C11.409 10.2778 11.186 10.2703 10.9731 10.3221C10.7603 10.374 10.5656 10.4831 10.4104 10.6377L9.26638 11.7817C7.28999 10.7032 5.66562 9.07879 4.58709 7.1024L5.72315 5.96634C6.04887 5.6565 6.16804 5.19572 6.02504 4.75083C5.73904 3.88489 5.59604 2.97127 5.59604 2.04177C5.59604 1.72572 5.47049 1.42261 5.247 1.19913C5.02352 0.975648 4.72042 0.850098 4.40437 0.850098H1.6238C1.30775 0.850098 1.00464 0.975648 0.781161 1.19913C0.55768 1.42261 0.432129 1.72572 0.432129 2.04177C0.432129 9.70818 6.66854 15.9446 14.335 15.9446ZM1.6238 1.64454H4.40437C4.50972 1.64454 4.61075 1.6864 4.68525 1.76089C4.75974 1.83538 4.80159 1.93642 4.80159 2.04177C4.80159 3.05866 4.96048 4.05172 5.27031 4.99711C5.31004 5.10834 5.30209 5.26722 5.17498 5.39434L3.60992 6.95145C4.92076 9.51752 6.84332 11.4401 9.41733 12.7668L10.9665 11.2017C11.0777 11.0905 11.2287 11.0587 11.3717 11.0985C12.325 11.4162 13.3181 11.5751 14.335 11.5751C14.4403 11.5751 14.5413 11.617 14.6158 11.6915C14.6903 11.766 14.7322 11.867 14.7322 11.9724V14.7529C14.7322 14.8583 14.6903 14.9593 14.6158 15.0338C14.5413 15.1083 14.4403 15.1501 14.335 15.1501C7.10549 15.1501 1.22658 9.27124 1.22658 2.04177C1.22658 1.93642 1.26843 1.83538 1.34292 1.76089C1.41741 1.6864 1.51845 1.64454 1.6238 1.64454Z" fill="black" fill-opacity="0.5"/>
</svg>
