<svg width="16" height="16" viewBox="0 0 16 16" fill="none" xmlns="http://www.w3.org/2000/svg">
<path d="M15.1875 14.6013H7.99538L15.0227 7.57399C15.1636 7.43316 15.2754 7.26594 15.3517 7.08188C15.428 6.89783 15.4672 6.70054 15.4672 6.50131C15.4672 6.30207 15.428 6.10479 15.3517 5.92073C15.2754 5.73668 15.1636 5.56945 15.0227 5.42862L10.2977 0.703619C10.0088 0.427519 9.6246 0.273438 9.225 0.273438C8.8254 0.273438 8.44119 0.427519 8.15231 0.703619L0.727313 8.12862C0.586385 8.26945 0.474589 8.43668 0.398314 8.62073C0.322039 8.80479 0.28278 9.00207 0.28278 9.20131C0.28278 9.40054 0.322039 9.59783 0.398314 9.78188C0.474589 9.96594 0.586385 10.1332 0.727313 10.274L1.73869 11.2854L1.73981 11.2871L1.74094 11.2876L5.05406 14.6013H0.5625C0.413316 14.6013 0.270242 14.6606 0.164752 14.7661C0.0592632 14.8715 0 15.0146 0 15.1638C0 15.313 0.0592632 15.4561 0.164752 15.5616C0.270242 15.667 0.413316 15.7263 0.5625 15.7263H15.1875C15.3367 15.7263 15.4798 15.667 15.5852 15.5616C15.6907 15.4561 15.75 15.313 15.75 15.1638C15.75 15.0146 15.6907 14.8715 15.5852 14.7661C15.4798 14.6606 15.3367 14.6013 15.1875 14.6013ZM14.3421 6.50131C14.3422 6.55282 14.3322 6.60386 14.3125 6.65147C14.2928 6.69907 14.2638 6.74229 14.2273 6.77862L6.80231 14.2036C6.72767 14.2751 6.62833 14.3149 6.525 14.3149C6.42167 14.3149 6.32233 14.2751 6.24769 14.2036L2.93288 10.8888L10.9125 2.90918L14.2273 6.22399C14.2639 6.26039 14.2929 6.3037 14.3126 6.35141C14.3323 6.39911 14.3423 6.4497 14.3421 6.50131ZM1.40794 9.20131C1.40776 9.14979 1.41781 9.09875 1.43751 9.05115C1.45721 9.00354 1.48616 8.96032 1.52269 8.92399L8.94769 1.49899C8.9841 1.46256 9.02733 1.43366 9.07491 1.41395C9.12249 1.39423 9.17349 1.38408 9.225 1.38408C9.27651 1.38408 9.32751 1.39423 9.37509 1.41395C9.42267 1.43366 9.4659 1.46256 9.50231 1.49899L10.1171 2.11381L2.1375 10.0934L1.52269 9.47862C1.48609 9.44222 1.4571 9.39891 1.4374 9.35121C1.4177 9.3035 1.40769 9.25292 1.40794 9.20131Z" fill="#636C76"/>
<path d="M8.32106 9.42255L6.35231 11.3913C6.29859 11.4432 6.25574 11.5053 6.22626 11.5739C6.19678 11.6425 6.18126 11.7163 6.18061 11.791C6.17996 11.8657 6.19419 11.9398 6.22248 12.0089C6.25076 12.078 6.29253 12.1408 6.34534 12.1936C6.39816 12.2465 6.46096 12.2882 6.53009 12.3165C6.59922 12.3448 6.67329 12.359 6.74798 12.3584C6.82266 12.3577 6.89648 12.3422 6.9651 12.3127C7.03373 12.2833 7.0958 12.2404 7.14769 12.1867L9.11644 10.2179C9.2189 10.1118 9.2756 9.96975 9.27432 9.82226C9.27304 9.67478 9.21388 9.53369 9.10959 9.4294C9.00529 9.32511 8.86421 9.26595 8.71673 9.26467C8.56924 9.26339 8.42715 9.32008 8.32106 9.42255Z" fill="#636C76"/>
</svg>
