<svg width="15" height="14" viewBox="0 0 15 14" fill="none" xmlns="http://www.w3.org/2000/svg">
<path d="M10.8828 3.53906V0.914063H3.88281V3.53906H3.00781V0.0390625H11.7578V3.53906H10.8828ZM12.2959 6.60156C12.5438 6.60156 12.7518 6.51756 12.9198 6.34956C13.0878 6.18156 13.1715 5.9739 13.1709 5.72656C13.1703 5.47923 13.0866 5.27127 12.9198 5.10269C12.753 4.9341 12.545 4.8501 12.2959 4.85069C12.0468 4.85127 11.8392 4.93527 11.6729 5.10269C11.5067 5.2701 11.4227 5.47806 11.4209 5.72656C11.4192 5.97506 11.5032 6.18273 11.6729 6.34956C11.8427 6.5164 12.0498 6.6004 12.2959 6.60156ZM10.8828 12.6251V8.65431H3.88281V12.6251H10.8828ZM11.7578 13.5001H3.00781V10.0001H0.0126801V5.28906C0.0126801 4.79323 0.180972 4.3776 0.517555 4.04219C0.854138 3.70677 1.26918 3.53877 1.76268 3.53819H13.0029C13.4988 3.53819 13.9144 3.70619 14.2498 4.04219C14.5852 4.37819 14.7529 4.79352 14.7529 5.28819V10.0001H11.7578V13.5001ZM13.8779 9.12506V5.28906C13.8779 5.04115 13.7942 4.83319 13.6268 4.66519C13.4594 4.49719 13.2514 4.41319 13.0029 4.41319H1.76268C1.51476 4.41319 1.3071 4.49719 1.13968 4.66519C0.972263 4.83319 0.888264 5.04115 0.88768 5.28906V9.12506H3.00781V7.77931H11.7578V9.12506H13.8779Z" fill="#636A7E"/>
</svg>
