<svg width="17" height="18" viewBox="0 0 17 18" fill="none" xmlns="http://www.w3.org/2000/svg">
<path d="M16.4009 6.27685C16.4009 7.1717 16.4567 8.07024 16.3903 8.95982C16.2139 11.3262 15.2116 13.3103 13.4793 14.9288C12.7804 15.5819 11.9667 16.0628 11.1324 16.5157C10.4277 16.8981 9.72611 17.2873 9.02877 17.6834C8.48206 17.9942 7.9501 17.9921 7.40235 17.6797C6.3516 17.0804 5.26398 16.541 4.24483 15.8932C1.84522 14.3679 0.462658 12.1658 0.077646 9.34641C0.0255035 8.96298 0.00706926 8.5727 0.00496249 8.18559C-0.00346458 6.77721 0.00127578 5.36884 0.00180247 3.96047C0.00232916 3.0614 0.535868 2.48257 1.42703 2.38092C3.52748 2.14075 5.48888 1.48185 7.29753 0.384756C7.70414 0.137738 8.12181 0.00659131 8.59109 0.135104C8.73488 0.174606 8.87866 0.234649 9.0056 0.312072C10.74 1.37125 12.6134 2.04278 14.6233 2.33457C14.825 2.36406 15.0294 2.37828 15.229 2.41568C15.9347 2.54946 16.4262 3.1304 16.4319 3.84828C16.4388 4.6578 16.4335 5.46733 16.4335 6.27685C16.423 6.27685 16.4119 6.27685 16.4009 6.27685ZM1.26586 6.2974C1.2764 6.2974 1.28746 6.2974 1.29799 6.2974C1.29799 7.16538 1.23321 8.03969 1.3101 8.90083C1.53922 11.4627 2.76272 13.4593 4.93374 14.834C5.94868 15.4766 7.02471 16.0217 8.0802 16.599C8.16131 16.6432 8.31563 16.6237 8.40464 16.5753C9.36849 16.0501 10.345 15.544 11.2825 14.9746C13.7664 13.4662 15.0731 11.2404 15.1621 8.33517C15.2069 6.8757 15.1689 5.41361 15.1726 3.95256C15.1732 3.76138 15.1063 3.6692 14.9072 3.63971C14.3225 3.55228 13.7358 3.46959 13.1586 3.34318C11.4821 2.97608 9.9115 2.33667 8.44572 1.44288C8.29561 1.35123 8.17184 1.33385 8.0112 1.43129C6.02189 2.64268 3.86508 3.37004 1.55344 3.6434C1.3022 3.67289 1.26586 3.71608 1.26586 3.96784C1.26586 4.74418 1.26586 5.52105 1.26586 6.2974Z" fill="#636C76"/>
<path d="M7.75896 9.3639C8.35096 8.73293 8.92716 8.11933 9.50336 7.50521C9.82306 7.16444 10.1407 6.82156 10.4625 6.4829C10.7421 6.18901 11.124 6.16004 11.3915 6.40706C11.6633 6.65776 11.6596 7.05015 11.3752 7.35405C10.3545 8.44483 9.33324 9.53508 8.30988 10.6238C8.00071 10.9529 7.65836 10.9666 7.3218 10.6685C6.72559 10.1408 6.13043 9.61145 5.53685 9.08107C5.22504 8.80245 5.18607 8.41691 5.43572 8.1404C5.68221 7.86757 6.0609 7.86178 6.36796 8.13145C6.82724 8.53436 7.28335 8.9415 7.75896 9.3639Z" fill="#636C76"/>
</svg>
