<svg width="9" height="8" viewBox="0 0 9 8" fill="none" xmlns="http://www.w3.org/2000/svg">
<path d="M4.50037 6.72169L2.53412 7.90902C2.47635 7.93755 2.42272 7.94911 2.37325 7.94369C2.32414 7.93791 2.27629 7.92094 2.22971 7.89277C2.18276 7.86388 2.14737 7.82308 2.12354 7.77036C2.09971 7.71763 2.09754 7.66004 2.11704 7.59757L2.64029 5.37132L0.909666 3.8709C0.860916 3.83118 0.828777 3.78369 0.813249 3.72844C0.797722 3.67319 0.801152 3.62029 0.823541 3.56973C0.84593 3.51918 0.875722 3.47765 0.912916 3.44515C0.950472 3.41373 1.00103 3.39243 1.06458 3.38123L3.34825 3.1819L4.23875 1.07373C4.26331 1.01415 4.29869 0.971176 4.34492 0.944815C4.39114 0.918454 4.44296 0.905273 4.50037 0.905273C4.55779 0.905273 4.60979 0.918454 4.65637 0.944815C4.70296 0.971176 4.73817 1.01415 4.762 1.07373L5.6525 3.1819L7.93562 3.38123C7.99954 3.39207 8.05028 3.41355 8.08783 3.44569C8.12539 3.47747 8.15536 3.51882 8.17775 3.56973C8.19978 3.62029 8.20303 3.67319 8.1875 3.72844C8.17197 3.78369 8.13983 3.83118 8.09108 3.8709L6.36046 5.37132L6.88371 7.59757C6.90393 7.65932 6.90194 7.71673 6.87775 7.76982C6.85356 7.8229 6.81799 7.8637 6.77104 7.89223C6.72482 7.92112 6.67697 7.93827 6.6275 7.94369C6.57839 7.94911 6.52494 7.93755 6.46717 7.90902L4.50037 6.72169Z" fill="black"/>
</svg>
