<svg width="9" height="9" viewBox="0 0 9 9" fill="none" xmlns="http://www.w3.org/2000/svg">
<path fill-rule="evenodd" clip-rule="evenodd" d="M0.926776 0.496112C1.00881 0.414183 1.12001 0.368164 1.23594 0.368164C1.35188 0.368164 1.46308 0.414183 1.54511 0.496112L8.54511 7.49611C8.58809 7.53617 8.62257 7.58447 8.64648 7.63813C8.67039 7.6918 8.68325 7.74973 8.68429 7.80848C8.68532 7.86722 8.67452 7.92557 8.65252 7.98004C8.63051 8.03452 8.59776 8.08401 8.55622 8.12555C8.51467 8.1671 8.46518 8.19985 8.41071 8.22185C8.35623 8.24385 8.29788 8.25466 8.23914 8.25362C8.1804 8.25259 8.12246 8.23973 8.0688 8.21582C8.01513 8.19191 7.96683 8.15743 7.92678 8.11445L0.926776 1.11445C0.844847 1.03241 0.798828 0.921217 0.798828 0.805279C0.798828 0.689341 0.844847 0.578144 0.926776 0.496112Z" fill="#FF0000"/>
<path fill-rule="evenodd" clip-rule="evenodd" d="M8.54532 0.496112C8.62725 0.578144 8.67327 0.689341 8.67327 0.805279C8.67327 0.921217 8.62725 1.03241 8.54532 1.11445L1.54532 8.11444C1.46239 8.19172 1.35269 8.2338 1.23935 8.2318C1.12601 8.2298 1.01787 8.18388 0.937711 8.10372C0.857553 8.02357 0.811638 7.91542 0.809638 7.80208C0.807639 7.68874 0.84971 7.57905 0.92699 7.49611L7.92699 0.496112C8.00902 0.414183 8.12022 0.368164 8.23616 0.368164C8.35209 0.368164 8.46329 0.414183 8.54532 0.496112Z" fill="#FF0000"/>
</svg>
