<svg width="17" height="17" viewBox="0 0 17 17" fill="none" xmlns="http://www.w3.org/2000/svg">
<path d="M15.229 3.35449C15.229 3.98438 14.9788 4.58847 14.5334 5.03387C14.088 5.47927 13.4839 5.72949 12.854 5.72949C12.2241 5.72949 11.62 5.47927 11.1746 5.03387C10.7292 4.58847 10.479 3.98438 10.479 3.35449C10.479 2.7246 10.7292 2.12051 11.1746 1.67511C11.62 1.22971 12.2241 0.979492 12.854 0.979492C13.4839 0.979492 14.088 1.22971 14.5334 1.67511C14.9788 2.12051 15.229 2.7246 15.229 3.35449ZM5.729 8.10449C5.729 8.41638 5.66757 8.72522 5.54822 9.01337C5.42886 9.30151 5.25392 9.56333 5.03338 9.78387C4.81284 10.0044 4.55103 10.1794 4.26288 10.2987C3.97473 10.4181 3.66589 10.4795 3.354 10.4795C3.04211 10.4795 2.73328 10.4181 2.44513 10.2987C2.15698 10.1794 1.89516 10.0044 1.67463 9.78387C1.45409 9.56333 1.27914 9.30151 1.15979 9.01337C1.04044 8.72522 0.979004 8.41638 0.979004 8.10449C0.979004 7.4746 1.22923 6.87051 1.67463 6.42511C2.12002 5.97971 2.72411 5.72949 3.354 5.72949C3.98389 5.72949 4.58798 5.97971 5.03338 6.42511C5.47878 6.87051 5.729 7.4746 5.729 8.10449ZM16.0207 13.6462C16.0207 14.276 15.7704 14.8801 15.3251 15.3255C14.8797 15.7709 14.2756 16.0212 13.6457 16.0212C13.0158 16.0212 12.4117 15.7709 11.9663 15.3255C11.5209 14.8801 11.2707 14.276 11.2707 13.6462C11.2707 13.0163 11.5209 12.4122 11.9663 11.9668C12.4117 11.5214 13.0158 11.2712 13.6457 11.2712C14.2756 11.2712 14.8797 11.5214 15.3251 11.9668C15.7704 12.4122 16.0207 13.0163 16.0207 13.6462Z" stroke="#05073C" stroke-width="1.5" stroke-linecap="round" stroke-linejoin="round"/>
<path d="M10.5067 2.62666C10.202 2.58296 9.89458 2.56153 9.58679 2.56253C8.43743 2.55918 7.30803 2.86291 6.31539 3.44232C5.32275 4.02174 4.5029 4.85579 3.94063 5.85824M14.606 4.93358C15.521 6.05133 16.0208 7.45136 16.0207 8.89587C16.0208 9.94779 15.7556 10.9828 15.2496 11.905M11.5731 14.9212C10.931 15.1264 10.2609 15.2303 9.58679 15.2292C6.58638 15.2292 4.06571 13.2065 3.354 10.4713" stroke="#05073C" stroke-width="1.5" stroke-linecap="round" stroke-linejoin="round"/>
</svg>
