<svg width="14" height="14" viewBox="0 0 14 14" fill="none" xmlns="http://www.w3.org/2000/svg">
<path d="M6.92795 8.6938L4.14965 12.0468V1.5832C4.14965 1.51358 4.122 1.44682 4.07277 1.39759C4.02354 1.34836 3.95677 1.3207 3.88715 1.3207C3.81753 1.3207 3.75076 1.34836 3.70154 1.39759C3.65231 1.44682 3.62465 1.51358 3.62465 1.5832V12.0321L0.846352 8.69345C0.824313 8.66693 0.797266 8.64501 0.766756 8.62894C0.736245 8.61288 0.702869 8.60298 0.668532 8.59981C0.634195 8.59664 0.599571 8.60026 0.566635 8.61048C0.533699 8.62069 0.503098 8.63729 0.476577 8.65933C0.450057 8.68137 0.428137 8.70841 0.412069 8.73892C0.396001 8.76943 0.386101 8.80281 0.382932 8.83715C0.379763 8.87148 0.383388 8.90611 0.393601 8.93904C0.403813 8.97198 0.420413 9.00258 0.442452 9.0291L3.6922 12.9341C3.71683 12.9637 3.74769 12.9876 3.7826 13.004C3.8175 13.0204 3.85559 13.0289 3.89415 13.0289H3.8945C3.97255 13.0289 4.0464 12.9939 4.09645 12.9341L7.33255 9.0291C7.37702 8.97545 7.39834 8.90633 7.39185 8.83695C7.38535 8.76757 7.35156 8.70362 7.2979 8.65915C7.24425 8.61469 7.17513 8.59336 7.10575 8.59986C7.03637 8.60636 6.97242 8.64015 6.92795 8.6938ZM13.3697 4.9705L10.1203 1.06555C10.0957 1.03593 10.0649 1.01207 10.0301 0.995679C9.99522 0.979287 9.95721 0.97076 9.9187 0.970703C9.84065 0.970703 9.7661 1.0057 9.71675 1.06555L6.4803 4.9705C6.4365 5.02418 6.4157 5.09299 6.42242 5.16195C6.42914 5.2309 6.46285 5.29439 6.5162 5.3386C6.56955 5.3828 6.6382 5.40412 6.7072 5.39791C6.7762 5.3917 6.83995 5.35847 6.88455 5.30545L9.66285 1.9528V12.4164C9.66285 12.486 9.69051 12.5528 9.73974 12.602C9.78897 12.6512 9.85573 12.6789 9.92535 12.6789C9.99497 12.6789 10.0617 12.6512 10.111 12.602C10.1602 12.5528 10.1879 12.486 10.1879 12.4164V1.96715L12.9662 5.3058C12.988 5.33247 13.015 5.35453 13.0454 5.3707C13.0759 5.38688 13.1093 5.39685 13.1436 5.40004C13.178 5.40323 13.2126 5.39958 13.2455 5.38929C13.2784 5.379 13.309 5.36228 13.3354 5.3401C13.389 5.29563 13.4227 5.23172 13.4291 5.16241C13.4355 5.09309 13.4142 5.02407 13.3697 4.9705Z" fill="#636A7E"/>
</svg>
