<svg width="14" height="13" viewBox="0 0 14 13" fill="none" xmlns="http://www.w3.org/2000/svg">
<path d="M6.54025 10.2906L3.0615 12.3912C2.95928 12.4417 2.8644 12.4622 2.77688 12.4526C2.68999 12.4424 2.60533 12.4123 2.52292 12.3625C2.43986 12.3114 2.37725 12.2392 2.33508 12.1459C2.29292 12.0526 2.28908 11.9507 2.32358 11.8402L3.24933 7.90146L0.187459 5.24687C0.101209 5.1766 0.044348 5.09258 0.0168758 4.99483C-0.0105964 4.89708 -0.00452695 4.80349 0.0350842 4.71404C0.0746953 4.6246 0.127404 4.55113 0.193209 4.49363C0.259654 4.43804 0.349098 4.40035 0.461543 4.38054L4.50188 4.02788L6.07738 0.298042C6.12082 0.192625 6.18343 0.116597 6.26521 0.0699583C6.34699 0.0233194 6.43867 0 6.54025 0C6.64183 0 6.73383 0.0233194 6.81625 0.0699583C6.89867 0.116597 6.96096 0.192625 7.00313 0.298042L8.57863 4.02788L12.618 4.38054C12.7311 4.39971 12.8208 4.43772 12.8873 4.49458C12.9537 4.55081 13.0068 4.62396 13.0464 4.71404C13.0853 4.80349 13.0911 4.89708 13.0636 4.99483C13.0362 5.09258 12.9793 5.1766 12.893 5.24687L9.83117 7.90146L10.7569 11.8402C10.7927 11.9495 10.7892 12.051 10.7464 12.145C10.7036 12.2389 10.6406 12.3111 10.5576 12.3615C10.4758 12.4127 10.3912 12.443 10.3036 12.4526C10.2167 12.4622 10.1222 12.4417 10.02 12.3912L6.54025 10.2906Z" fill="black"/>
</svg>
