<svg width="18" height="18" viewBox="0 0 18 18" fill="none" xmlns="http://www.w3.org/2000/svg">
<path d="M7.59502 0C8.27467 0 8.95432 0 9.63396 0C9.68552 0.00843699 9.73661 0.020155 9.78864 0.0248422C10.8484 0.122805 11.9115 0.192644 12.967 0.323886C14.7904 0.550279 16.4689 2.10081 16.8406 3.90117C17.118 5.24593 17.2127 6.61506 17.2169 7.98561C17.2207 9.06742 17.1537 10.1492 17.1251 11.2315C17.1227 11.3215 17.1541 11.4279 17.2066 11.5005C17.5239 11.9435 17.755 12.4253 17.8839 12.9541C17.9308 13.1458 17.9622 13.3412 18.0006 13.5348C18.0006 13.7926 18.0006 14.0504 18.0006 14.3082C17.9711 14.4624 17.9458 14.6175 17.9111 14.7703C17.254 17.6952 13.9068 18.9542 11.484 17.1913C11.4207 17.1449 11.3246 17.12 11.2454 17.1233C10.9178 17.1365 10.5911 17.1711 10.2639 17.1866C8.25826 17.2813 6.26151 17.2068 4.27132 16.9147C2.50752 16.656 0.837936 15.2264 0.437648 13.4828C0.237035 12.6091 0.15079 11.703 0.0837632 10.8064C-0.0802893 8.62166 -0.003419 6.44211 0.314843 4.27052C0.582014 2.44766 2.09411 0.754641 3.89915 0.396538C4.76863 0.224049 5.66202 0.169208 6.54602 0.0712456C6.89382 0.0323418 7.24536 0.0224986 7.59502 0ZM15.8417 10.3044C15.8469 10.2645 15.8525 10.2369 15.8534 10.2092C15.9439 8.26824 15.8848 6.33477 15.582 4.41161C15.3749 3.09778 14.2181 1.8702 12.9084 1.66771C12.0193 1.52991 11.1198 1.43522 10.2213 1.3832C8.2817 1.27023 6.34822 1.35086 4.42365 1.64427C3.18154 1.83364 1.91693 2.94779 1.70132 4.19131C1.53774 5.13484 1.44352 6.09385 1.38353 7.05051C1.2715 8.8368 1.34369 10.6208 1.58273 12.3967C1.6582 12.9578 1.76647 13.5053 2.08848 13.9866C2.63408 14.8032 3.34794 15.3966 4.336 15.5658C6.04449 15.8578 7.76986 15.9229 9.50037 15.8817C9.76614 15.8751 10.0319 15.8573 10.3014 15.8442C9.51022 14.0031 9.69864 12.3203 11.1732 10.9423C12.5368 9.66785 14.137 9.55114 15.8417 10.3044ZM16.6648 13.922C16.6643 12.4131 15.433 11.1832 13.9237 11.1832C12.4182 11.1832 11.1826 12.4202 11.1845 13.9257C11.1859 15.4336 12.4186 16.6635 13.9274 16.663C15.4363 16.6626 16.6652 15.4317 16.6648 13.922Z" fill="#636C76"/>
<path d="M8.59432 4.4956C10.0286 4.4956 11.4629 4.49466 12.8972 4.49653C13.2215 4.497 13.4671 4.68215 13.5534 4.97744C13.6354 5.25961 13.5243 5.58491 13.2618 5.71943C13.1231 5.79067 12.9506 5.8263 12.7931 5.82677C10.3755 5.83333 7.95733 5.83145 5.53966 5.83145C5.13 5.83145 4.71987 5.83614 4.31021 5.82911C4.00366 5.82348 3.75665 5.63834 3.66947 5.36836C3.58416 5.104 3.65822 4.79792 3.89117 4.64746C4.02476 4.56122 4.20334 4.5031 4.36177 4.50216C5.77215 4.49091 7.183 4.4956 8.59432 4.4956Z" fill="#636C76"/>
<path d="M6.8479 9.98853C6.01592 9.98853 5.18394 9.98947 4.35196 9.98806C3.93714 9.98713 3.64091 9.71292 3.63528 9.33045C3.62966 8.94563 3.93433 8.65455 4.35571 8.65361C6.0253 8.65127 7.69488 8.65127 9.36493 8.65361C9.7535 8.65408 10.0244 8.88516 10.076 9.24655C10.1205 9.55684 9.91803 9.86854 9.60351 9.959C9.52102 9.98291 9.43056 9.98713 9.34384 9.98713C8.51139 9.98947 7.67988 9.98853 6.8479 9.98853Z" fill="#636C76"/>
<path d="M14.59 13.0454C14.59 13.2324 14.5942 13.4199 14.5891 13.6069C14.5783 13.9748 14.2821 14.2617 13.9211 14.2594C13.5668 14.2575 13.2687 13.9791 13.2588 13.6186C13.2481 13.2268 13.2471 12.8344 13.2593 12.4431C13.2706 12.0765 13.5799 11.8019 13.9446 11.8108C14.2989 11.8192 14.5806 12.1032 14.59 12.4665C14.5938 12.6591 14.59 12.8523 14.59 13.0454Z" fill="#636C76"/>
<path d="M14.591 15.3487C14.6014 15.92 14.487 16.0335 13.9086 16.0307C13.8383 16.0302 13.7675 16.0302 13.6981 16.0227C13.3939 15.9903 13.2702 15.8657 13.258 15.561C13.251 15.3862 13.2514 15.2085 13.2725 15.0356C13.2978 14.827 13.4258 14.7117 13.6358 14.6971C13.8106 14.685 13.9869 14.6831 14.1617 14.6925C14.4476 14.7079 14.5723 14.8373 14.5906 15.1204C14.5953 15.1963 14.591 15.2723 14.591 15.3487Z" fill="#636C76"/>
</svg>
