<svg width="14" height="16" viewBox="0 0 14 16" fill="none" xmlns="http://www.w3.org/2000/svg">
<g clip-path="url(#clip0_1_4600)">
<path d="M-0.127319 8.34375C-0.106107 7.67708 0.190862 7.17708 0.76359 6.84375C1.35753 6.51042 1.95147 6.51042 2.54541 6.84375C3.11814 7.17708 3.4151 7.67708 3.43632 8.34375C3.4151 9.01042 3.11814 9.51042 2.54541 9.84375C1.95147 10.1771 1.35753 10.1771 0.76359 9.84375C0.190862 9.51042 -0.106107 9.01042 -0.127319 8.34375ZM4.96359 8.34375C4.9848 7.67708 5.28177 7.17708 5.8545 6.84375C6.44844 6.51042 7.04238 6.51042 7.63632 6.84375C8.20904 7.17708 8.50601 7.67708 8.52723 8.34375C8.50601 9.01042 8.20904 9.51042 7.63632 9.84375C7.04238 10.1771 6.44844 10.1771 5.8545 9.84375C5.28177 9.51042 4.9848 9.01042 4.96359 8.34375ZM11.8363 6.59375C12.5151 6.61458 13.0242 6.90625 13.3636 7.46875C13.703 8.05208 13.703 8.63542 13.3636 9.21875C13.0242 9.78125 12.5151 10.0729 11.8363 10.0937C11.1575 10.0729 10.6484 9.78125 10.309 9.21875C9.96965 8.63542 9.96965 8.05208 10.309 7.46875C10.6484 6.90625 11.1575 6.61458 11.8363 6.59375Z" fill="black"/>
</g>
<defs>
<clipPath id="clip0_1_4600">
<rect width="14" height="16" fill="white"/>
</clipPath>
</defs>
</svg>
