<svg width="14" height="14" viewBox="0 0 14 14" fill="none" xmlns="http://www.w3.org/2000/svg">
<path d="M12.6875 7.21875C12.6875 8.25781 12.4323 9.20573 11.9219 10.0625C11.4297 10.9193 10.737 11.612 9.84375 12.1406C8.95052 12.651 8.0026 12.9062 7 12.9062C5.9974 12.9062 5.04948 12.651 4.15625 12.1406C3.26302 11.612 2.57031 10.9193 2.07812 10.0625C1.56771 9.20573 1.3125 8.25781 1.3125 7.21875C1.3125 6.17969 1.56771 5.23177 2.07812 4.375C2.57031 3.51823 3.26302 2.82552 4.15625 2.29688C5.04948 1.78646 5.9974 1.53125 7 1.53125C8.0026 1.53125 8.95052 1.78646 9.84375 2.29688C10.737 2.82552 11.4297 3.51823 11.9219 4.375C12.4323 5.23177 12.6875 6.17969 12.6875 7.21875ZM0 7.21875C0.0182292 8.49479 0.328125 9.66146 0.929688 10.7188C1.54948 11.776 2.40625 12.6328 3.5 13.2891C4.61198 13.9089 5.77865 14.2188 7 14.2188C8.22135 14.2188 9.38802 13.9089 10.5 13.2891C11.5938 12.6328 12.4505 11.776 13.0703 10.7188C13.6719 9.66146 13.9818 8.49479 14 7.21875C13.9818 5.94271 13.6719 4.77604 13.0703 3.71875C12.4505 2.66146 11.5938 1.80469 10.5 1.14844C9.38802 0.528646 8.22135 0.21875 7 0.21875C5.77865 0.21875 4.61198 0.528646 3.5 1.14844C2.40625 1.80469 1.54948 2.66146 0.929688 3.71875C0.328125 4.77604 0.0182292 5.94271 0 7.21875ZM6.34375 3.5V7.21875C6.34375 7.45573 6.44401 7.63802 6.64453 7.76562L9.26953 9.51562C9.61589 9.71615 9.91667 9.65234 10.1719 9.32422C10.3724 8.97786 10.3086 8.67708 9.98047 8.42188L7.65625 6.86328V3.5C7.61979 3.09896 7.40104 2.88021 7 2.84375C6.59896 2.88021 6.38021 3.09896 6.34375 3.5Z" fill="#4B5563"/>
</svg>
