<svg width="22" height="18" viewBox="0 0 22 18" fill="none" xmlns="http://www.w3.org/2000/svg">
<path d="M10.54 8.11205C9.29829 8.11205 8.23475 7.71449 7.34939 6.91938C6.46403 6.12427 6.02185 5.1696 6.02286 4.05537C6.02386 2.94113 6.46604 1.98556 7.34939 1.18865C8.23274 0.391733 9.29628 -0.0044694 10.54 3.80267e-05C11.7837 0.00454545 12.8473 0.401198 13.7306 1.19C14.614 1.9788 15.0561 2.93437 15.0571 4.05672C15.0581 5.17907 14.616 6.13374 13.7306 6.92073C12.8453 7.70773 11.7817 8.10393 10.54 8.11205ZM0 17.89V15.6642C0 15.1062 0.180686 14.5843 0.542057 14.0984C0.904433 13.6116 1.39128 13.2338 2.0026 12.9652C3.42399 12.3531 4.84639 11.8942 6.26979 11.5886C7.69219 11.2821 9.11559 11.1289 10.54 11.1289C11.9644 11.1289 13.3883 11.2821 14.8117 11.5886C16.2351 11.8951 17.6565 12.354 19.0759 12.9652C19.6882 13.2338 20.1751 13.6116 20.5364 14.0984C20.8988 14.5843 21.08 15.1062 21.08 15.6642V17.89H0ZM1.50571 16.5378H19.5743V15.6642C19.5743 15.3649 19.4664 15.0832 19.2506 14.8191C19.0357 14.5559 18.7381 14.3332 18.3577 14.1511C17.119 13.612 15.8411 13.1991 14.5241 12.9125C13.2071 12.6258 11.8791 12.482 10.54 12.4811C9.20092 12.4802 7.87288 12.6235 6.55588 12.9111C5.23888 13.1987 3.96103 13.6116 2.72233 14.1497C2.34088 14.3318 2.04325 14.5545 1.82944 14.8177C1.61362 15.0819 1.50571 15.364 1.50571 15.6642V16.5378ZM10.54 6.76117C11.3681 6.76117 12.0773 6.49614 12.6676 5.96606C13.2578 5.43599 13.5524 4.79864 13.5514 4.05401C13.5504 3.30939 13.2558 2.67294 12.6676 2.14467C12.0793 1.6164 11.3702 1.35136 10.54 1.34956C9.70985 1.34776 9.00116 1.61279 8.41393 2.14467C7.8267 2.67655 7.53158 3.31299 7.52857 4.05401C7.52556 4.79503 7.82068 5.43193 8.41393 5.96471C9.00718 6.49749 9.71587 6.76207 10.54 6.75847" fill="black" fill-opacity="0.5"/>
</svg>
